# xmcd
#
# Track frame offsets: 
#        150
#        10116
#        39400
#        54193
#        60074
#        83329
#        89944
#        120495
#        139120
#        164891
#        178811
#        214060
#
# Disc length: 3309 seconds
#
# Revision: 2
# Processed by: cddbd v1.5.2PL0 Copyright (c) Steve Scherf et al.
# Submitted via: ExactAudioCopy v0.99pb4
#
DISCID=980ceb0c
DTITLE=Bruce Springsteen - American Red Cross Benefit-Asbury Park, 10-
DTITLE=4-05[CD2]
DYEAR=2005
DGENRE=Rock and Roll
TTITLE0=Meet Bruce's Aunts
TTITLE1=Jesus Was An Only Son
TTITLE2=Two Hearts
TTITLE3=Warm-Up To Galveston Bay
TTITLE4=Galveston Bay
TTITLE5=Intro To Matamoras Banks
TTITLE6=Matamoras Banks
TTITLE7=I Wanna Marry You
TTITLE8=4th Of July Asbury Park (Sandy)
TTITLE9=Hurricane Katrina Psa
TTITLE10=The Promised Land
TTITLE11=Dream Baby Dream
EXTD=
EXTT0=
EXTT1=
EXTT2=
EXTT3=
EXTT4=
EXTT5=
EXTT6=
EXTT7=
EXTT8=
EXTT9=
EXTT10=
EXTT11=
PLAYORDER=
